#!OML:ASF Y:\EmotionMaleHayes\Project 1\Capture day 1\Session 1\Male1.ASF
:FULLY-SPECIFIED
:DEGREES
370
root -11.6149 16.7882 0.784219 81.0501 83.0272 82.6361
lowerback 4.90299 -1.02642 -8.84764
upperback 0.960067 -1.79233 0.29361
thorax -1.47231 -0.8518 5.38057
lowerneck -24.7246 4.14561 4.53185
upperneck 14.4327 4.70483 -3.11327
head 8.70808 2.12313 -1.11726
rclavicle 1.63997e-015 -3.97569e-016
rhumerus -44.6781 1.17208 -82.2862
rradius 29.7937
rwrist 4.63275
rhand -9.4888 -28.6199
rfingers 7.12502
rthumb 16.4759 -57.9403
lclavicle 1.63997e-015 -3.97569e-016
lhumerus -37.2491 -22.1868 101.705
lradius 32.2987
lwrist -5.80695
lhand -13.4729 -24.1385
lfingers 7.12502
lthumb 12.6373 5.45922
rfemur -13.9938 -6.80527 11.4022
rtibia 13.3908
rfoot -4.47165 -1.35309
rtoes 27.3445
lfemur 24.1293 -1.96508 -30.0485
ltibia 20.0242
lfoot -8.3627 6.26235
ltoes 3.87924
371
root -11.4827 16.8095 0.816266 82.0762 83.4989 83.6391
lowerback 4.94081 -1.07126 -8.4465
upperback 0.853496 -1.84121 0.41862
thorax -1.60615 -0.869921 5.29116
lowerneck -24.8436 4.12346 4.65443
upperneck 14.779 4.65946 -3.22638
head 8.85214 2.09363 -1.17969
rclavicle -1.17283e-014 0
rhumerus -44.25 1.15653 -82.302
rradius 29.857
rwrist 4.18018
rhand -9.06542 -29.3255
rfingers 7.12502
rthumb 16.8835 -58.6116
lclavicle -1.17283e-014 0
lhumerus -37.7533 -21.3427 101.466
lradius 31.4478
lwrist -6.39294
lhand -12.7567 -23.7262
lfingers 7.12502
lthumb 13.3277 5.82757
rfemur -13.1969 -6.8291 11.941
rtibia 12.991
rfoot -4.61201 -1.31518
rtoes 28.944
lfemur 23.3934 -1.67884 -29.0213
ltibia 21.9677
lfoot -6.90219 6.04563
ltoes 6.64283
372
root -11.3431 16.8338 0.845552 83.2414 83.9114 84.9251
lowerback 5.0526 -1.11642 -8.04883
upperback 0.792403 -1.8934 0.521365
thorax -1.73432 -0.891445 5.18192
lowerneck -25.0495 4.05258 4.75119
upperneck 15.2235 4.56219 -3.36981
head 9.04343 2.03379 -1.2557
rclavicle -5.2181e-016 0
rhumerus -43.6226 0.976771 -82.2026
rradius 29.4089
rwrist 4.17195
rhand -8.98468 -29.1982
rfingers 7.12502
rthumb 16.9612 -58.4777
lclavicle -5.2181e-016 0
lhumerus -38.1913 -20.1694 101.073
lradius 30.5717
lwrist -7.30594
lhand -11.2041 -23.1179
lfingers 7.12502
lthumb 14.8239 6.3319
rfemur -12.2509 -6.98673 12.3978
rtibia 12.6765
rfoot -4.80611 -1.12386
rtoes 30.1963
lfemur 22.7669 -1.24524 -28.0245
ltibia 23.9143
lfoot -5.12933 6.02478
ltoes 5.31973
373
root -11.2012 16.8564 0.872023 84.1359 84.2017 86.0297
lowerback 5.25857 -1.10651 -7.69142
upperback 0.736608 -1.88145 0.538403
thorax -1.92089 -0.878577 5.00493
lowerneck -25.1156 3.95658 4.89736
upperneck 15.5465 4.42435 -3.54483
head 9.1698 1.95655 -1.35964
rclavicle -2.03754e-015 1.19271e-015
rhumerus -43.3628 1.17049 -82.4083
rradius 29.4977
rwrist 3.84519
rhand -9.14817 -29.1057
rfingers 7.12502
rthumb 16.8038 -58.3986
lclavicle -2.03754e-015 1.19271e-015
lhumerus -38.7122 -19.0016 100.581
lradius 29.7765
lwrist -8.44326
lhand -12.9258 -24.1203
lfingers 7.12502
lthumb 13.1647 5.44404
rfemur -11.2857 -7.34838 12.7145
rtibia 12.5172
rfoot -5.13243 -0.571756
rtoes 30.0115
lfemur 22.2546 -0.794062 -27.1747
ltibia 25.6909
lfoot -3.38603 6.15585
ltoes 3.99554
374
root -11.0624 16.8752 0.896061 84.3339 84.3611 86.3518
lowerback 5.45419 -1.05201 -7.37637
upperback 0.618734 -1.81433 0.473413
thorax -2.17497 -0.834418 4.76338
lowerneck -25.119 3.88409 5.01525
upperneck 15.8274 4.31995 -3.6696
head 9.27036 1.90014 -1.43786
rclavicle 9.54166e-015 7.15625e-015
rhumerus -43.5495 1.6011 -82.835
rradius 30.3835
rwrist 3.13065
rhand -9.1837 -29.5303
rfingers 7.12502
rthumb 16.7696 -58.8261
lclavicle 9.54166e-015 7.15625e-015
lhumerus -39.3693 -18.2913 100.166
lradius 28.9477
lwrist -9.58835
lhand -12.9654 -24.1669
lfingers 7.12502
lthumb 13.1266 5.39995
rfemur -10.5044 -7.72455 12.9058
rtibia 12.4287
rfoot -5.39737 0.0246587
rtoes 29.4866
lfemur 21.5818 -0.324931 -26.5229
ltibia 27.6237
lfoot -2.38034 6.18593
ltoes 4.02142
375
root -10.9232 16.8911 0.919642 84.1865 84.4806 86.2624
lowerback 4.8906 -1.04751 -7.31641
upperback 0.932386 -1.74309 0.542683
thorax -1.54205 -0.832017 4.77578
lowerneck -25.3316 3.89211 4.92581
upperneck 15.7853 4.36305 -3.72685
head 9.2926 1.9054 -1.43483
rclavicle -7.25564e-015 2.46493e-014
rhumerus -42.834 2.00791 -83.0207
rradius 30.8553
rwrist 2.65983
rhand -9.14717 -29.6425
rfingers 7.12502
rthumb 16.8048 -58.9353
lclavicle -7.25564e-015 2.46493e-014
lhumerus -39.1725 -17.602 99.6414
lradius 27.9313
lwrist -10.5397
lhand -12.7505 -24.2563
lfingers 7.12502
lthumb 13.3337 5.29712
rfemur -9.77409 -7.93904 13.059
rtibia 12.2239
rfoot -5.55565 0.47255
rtoes 30.2347
lfemur 20.7424 0.146589 -25.9682
ltibia 29.7606
lfoot -0.826163 6.43518
ltoes 6.38994
376
root -10.7868 16.9043 0.947369 84.5696 84.755 86.7649
lowerback 5.16342 -0.98417 -6.87259
upperback 0.7162 -1.66854 0.465076
thorax -1.94519 -0.777198 4.45181
lowerneck -25.1586 3.76853 4.76301
upperneck 16.0678 4.19954 -3.41065
head 9.34383 1.85773 -1.32495
rclavicle -1.3418e-015 1.15295e-014
rhumerus -42.8631 2.10484 -83.3515
rradius 31.0911
rwrist 2.43012
rhand -9.2454 -29.7883
rfingers 7.12502
rthumb 16.7102 -59.0891
lclavicle -1.3418e-015 1.15295e-014
lhumerus -39.9862 -16.9993 99.1785
lradius 27.5809
lwrist -10.5979
lhand -11.6755 -23.7057
lfingers 7.12502
lthumb 14.3697 5.77689
rfemur -8.8825 -7.85423 13.3688
rtibia 11.8568
rfoot -5.86972 0.669009
rtoes 31.7637
lfemur 19.9315 0.603175 -25.1773
ltibia 31.8811
lfoot 0.717408 6.66724
ltoes 7.07173
377
root -10.6537 16.9142 0.976139 84.7908 85.212 87.1899
lowerback 5.12189 -0.948697 -6.42222
upperback 0.82251 -1.58762 0.555632
thorax -1.8317 -0.746335 4.28472
lowerneck -25.0822 3.66422 4.6396
upperneck 16.0745 4.08948 -3.34012
head 9.32416 1.80788 -1.29822
rclavicle -4.12478e-015 -1.63003e-014
rhumerus -42.4053 2.31077 -83.5477
rradius 31.3398
rwrist 2.19236
rhand -9.4614 -29.9099
rfingers 7.12502
rthumb 16.5023 -59.2281
lclavicle -4.12478e-015 -1.63003e-014
lhumerus -40.2786 -16.4826 98.7606
lradius 27.4393
lwrist -10.1369
lhand -9.83247 -22.2614
lfingers 7.12502
lthumb 16.145 7.08616
rfemur -7.96192 -7.9495 13.8962
rtibia 11.6198
rfoot -6.4146 0.979602
rtoes 32.5884
lfemur 19.259 1.03353 -24.1722
ltibia 33.8991
lfoot 2.06495 7.04021
ltoes 8.70355
378
root -10.5207 16.9208 1.00391 85.2242 85.7214 87.8276
lowerback 5.12993 -0.92271 -5.91894
upperback 0.90196 -1.52113 0.676261
thorax -1.77202 -0.719784 4.12158
lowerneck -25.0021 3.61074 4.72164
upperneck 16.0854 4.03401 -3.52781
head 9.31856 1.76623 -1.38631
rclavicle 5.01931e-015 -4.37326e-015
rhumerus -41.9457 2.61357 -83.7534
rradius 31.487
rwrist 2.0904
rhand -9.67342 -30.0522
rfingers 7.12502
rthumb 16.2981 -59.3873
lclavicle 5.01931e-015 -4.37326e-015
lhumerus -40.4441 -15.8702 98.29
lradius 26.8138
lwrist -10.5772
lhand -8.96002 -21.658
lfingers 7.12502
lthumb 16.9849 7.61937
rfemur -7.05611 -8.38336 14.4787
rtibia 11.3832
rfoot -6.75017 1.41205
rtoes 32.5016
lfemur 18.5613 1.47439 -23.1103
ltibia 35.8933
lfoot 3.51712 7.52
ltoes 11.0917
379
root -10.392 16.9256 1.02965 86.6739 86.1417 89.4566
lowerback 5.19504 -0.888756 -5.56818
upperback 0.957625 -1.45585 0.830139
thorax -1.76324 -0.690319 4.08062
lowerneck -24.9513 3.52442 4.70994
upperneck 16.099 3.96653 -3.7186
head 9.31626 1.71241 -1.46201
rclavicle 2.45996e-015 -1.11319e-014
rhumerus -41.5251 3.15662 -83.9715
rradius 31.622
rwrist 2.03928
rhand -9.94621 -30.1191
rfingers 7.12502
rthumb 16.0354 -59.4755
lclavicle 2.45996e-015 -1.11319e-014
lhumerus -40.5958 -14.9709 97.7217
lradius 25.9526
lwrist -12.2396
lhand -9.52287 -22.2335
lfingers 7.12502
lthumb 16.4431 7.08959
rfemur -6.14733 -8.89165 14.9131
rtibia 11.087
rfoot -6.84883 1.89452
rtoes 31.8489
lfemur 17.7154 2.0347 -22.1022
ltibia 37.927
lfoot 5.2631 7.80166
ltoes 11.1732
380
root -10.2665 16.9293 1.05335 87.5186 86.5991 90.4804
lowerback 5.6246 -0.801754 -4.89333
upperback 0.792239 -1.33081 0.799776
thorax -2.20526 -0.616489 3.6729
lowerneck -24.8821 3.3826 4.60266
upperneck 16.3737 3.78087 -3.53144
head 9.38647 1.64168 -1.40855
rclavicle -1.04362e-015 1.47101e-014
rhumerus -41.4521 3.23658 -84.255
rradius 31.8165
rwrist 2.04744
rhand -10.1077 -29.8877
rfingers 7.12502
rthumb 15.8799 -59.2566
lclavicle -1.04362e-015 1.47101e-014
lhumerus -41.2609 -14.3702 97.05
lradius 25.4627
lwrist -13.5412
lhand -10.1567 -22.7614
lfingers 7.12502
lthumb 15.8328 6.61117
rfemur -5.30918 -9.25747 15.3891
rtibia 10.9782
rfoot -7.25758 2.50967
rtoes 32.1491
lfemur 16.8139 2.59672 -21.11
ltibia 39.9848
lfoot 6.64304 8.07644
ltoes 11.3516
381
root -10.144 16.9307 1.07985 87.0983 87.294 90.2119
lowerback 5.52689 -0.708352 -4.35528
upperback 0.985854 -1.15646 1.09637
thorax -1.97233 -0.541445 3.66052
lowerneck -25.008 3.30012 4.45396
upperneck 16.3907 3.74985 -3.68068
head 9.41293 1.5986 -1.44078
rclavicle 6.80837e-015 -2.38542e-015
rhumerus -40.8177 3.45771 -84.1252
rradius 32.1072
rwrist 1.85154
rhand -10.1003 -30.1231
rfingers 7.12502
rthumb 15.8871 -59.4914
lclavicle 6.80837e-015 -2.38542e-015
lhumerus -41.3538 -13.8551 96.6709
lradius 25.1714
lwrist -13.9936
lhand -10.221 -22.8393
lfingers 7.12502
lthumb 15.7708 6.53823
rfemur -4.57518 -9.33458 16.2327
rtibia 10.888
rfoot -7.78933 2.89167
rtoes 32.5872
lfemur 15.8649 3.07083 -19.8798
ltibia 41.9882
lfoot 7.47792 8.45696
ltoes 12.6216
382
root -10.0275 16.9307 1.10725 86.2047 88.0541 89.4554
lowerback 5.79047 -0.595341 -3.5315
upperback 0.948004 -0.962653 1.23832
thorax -2.18882 -0.443691 3.33458
lowerneck -25.098 3.13442 4.42703
upperneck 16.5608 3.54648 -3.73341
head 9.48004 1.49483 -1.48607
rclavicle -2.19906e-015 1.82882e-014
rhumerus -40.6232 3.70596 -84.3138
rradius 32.5661
rwrist 1.52751
rhand -10.271 -30.3858
rfingers 7.12502
rthumb 15.7227 -59.7671
lclavicle -2.19906e-015 1.82882e-014
lhumerus -41.733 -13.4733 96.1572
lradius 24.7925
lwrist -14.4129
lhand -10.33 -22.8397
lfingers 7.12502
lthumb 15.6659 6.54605
rfemur -3.89979 -9.51967 17.1712
rtibia 10.7245
rfoot -8.00108 3.10871
rtoes 31.8735
lfemur 14.9165 3.53732 -18.5443
ltibia 43.8242
lfoot 8.19382 8.67766
ltoes 12.9428
383
root -9.91218 16.9305 1.1317 86.1689 88.7598 89.6243
lowerback 5.91958 -0.511358 -2.74687
upperback 1.07591 -0.798026 1.35621
thorax -2.15214 -0.367629 3.00247
lowerneck -25.292 2.93099 4.20223
upperneck 16.6285 3.29284 -3.51894
head 9.51738 1.38546 -1.41258
rclavicle -1.13059e-015 -4.37326e-015
rhumerus -40.0434 4.01903 -84.5006
rradius 32.7364
rwrist 1.21595
rhand -10.527 -30.1033
rfingers 7.12502
rthumb 15.4761 -59.5039
lclavicle -1.13059e-015 -4.37326e-015
lhumerus -41.6845 -12.9701 95.4825
lradius 24.1265
lwrist -15.0042
lhand -10.6354 -22.9371
lfingers 7.12502
lthumb 15.3717 6.47148
rfemur -3.07048 -10.129 17.9202
rtibia 10.4782
rfoot -7.96022 4.1558
rtoes 23.1861
lfemur 14.0679 3.9311 -17.3253
ltibia 45.5403
lfoot 8.01264 8.56236
ltoes 10.5414
